<svg width="294" height="96" viewBox="0 0 294 96" fill="none" xmlns="http://www.w3.org/2000/svg">
<path d="M88.3981 70.784C88.3981 73.7707 89.2823 76.0747 91.0506 77.696C92.9031 79.3173 95.3029 80.128 98.2501 80.128C100.608 80.128 102.966 79.6587 105.323 78.72V93.568C103.218 94.2507 100.987 94.8053 98.629 95.232C96.2713 95.744 93.9135 96 91.5558 96C88.8613 96 86.293 95.6587 83.8511 94.976C81.4091 94.2933 79.2198 93.1413 77.2831 91.52C75.3464 89.8133 73.7886 87.5947 72.6098 84.864C71.5151 82.048 70.9678 78.592 70.9678 74.496V45.824H62V33.92L70.9678 30.08V15.872H88.3981V30.08H105.323V45.824H88.3981V70.784Z" fill="#FF5499"/>
<path d="M131.319 93.568H113.888V30.08H131.319V93.568ZM122.604 21.376C119.909 21.376 117.636 20.4373 115.783 18.56C113.931 16.6827 113.004 14.3787 113.004 11.648C113.004 8.91733 113.931 6.61333 115.783 4.736C117.636 2.77333 119.909 1.792 122.604 1.792C125.298 1.792 127.572 2.77333 129.424 4.736C131.277 6.61333 132.203 8.91733 132.203 11.648C132.203 14.3787 131.277 16.6827 129.424 18.56C127.572 20.4373 125.298 21.376 122.604 21.376Z" fill="#FF5499"/>
<path d="M143.562 19.2H160.992V93.568H143.562V19.2Z" fill="#FF5499"/>
<path d="M170.915 0H188.345V93.568H170.915V0Z" fill="#FF5499"/>
<path d="M216.709 93.568H199.279V30.08H216.709V93.568ZM207.994 21.376C205.299 21.376 203.026 20.4373 201.173 18.56C199.321 16.6827 198.395 14.3787 198.395 11.648C198.395 8.91733 199.321 6.61333 201.173 4.736C203.026 2.77333 205.299 1.792 207.994 1.792C210.688 1.792 212.962 2.77333 214.814 4.736C216.667 6.61333 217.593 8.91733 217.593 11.648C217.593 14.3787 216.667 16.6827 214.814 18.56C212.962 20.4373 210.688 21.376 207.994 21.376Z" fill="#FF5499"/>
<path d="M294 30.08V93.568H278.969L277.201 86.784C274.759 90.112 271.812 92.3307 268.36 93.44C264.992 94.5493 261.455 95.104 257.75 95.104C253.287 95.104 249.161 94.2507 245.372 92.544C241.667 90.752 238.425 88.3627 235.646 85.376C232.867 82.304 230.678 78.7627 229.078 74.752C227.563 70.656 226.805 66.304 226.805 61.696C226.805 57.088 227.563 52.7787 229.078 48.768C230.678 44.672 232.867 41.1307 235.646 38.144C238.425 35.072 241.667 32.6827 245.372 30.976C249.161 29.184 253.287 28.288 257.75 28.288C261.792 28.288 265.497 28.928 268.865 30.208C272.233 31.488 275.012 33.536 277.201 36.352L278.969 30.08H294ZM276.57 61.952C276.57 58.624 276.107 55.8507 275.18 53.632C274.338 51.328 273.159 49.4933 271.644 48.128C270.212 46.6773 268.486 45.6533 266.465 45.056C264.528 44.3733 262.423 44.032 260.15 44.032C257.876 44.032 255.729 44.5013 253.708 45.44C251.771 46.3787 250.045 47.6587 248.53 49.28C247.014 50.816 245.835 52.6933 244.993 54.912C244.151 57.0453 243.73 59.3067 243.73 61.696C243.73 64.1707 244.151 66.4747 244.993 68.608C245.835 70.7413 247.014 72.6187 248.53 74.24C250.045 75.776 251.771 77.0133 253.708 77.952C255.729 78.8907 257.876 79.36 260.15 79.36C264.697 79.36 268.528 77.952 271.644 75.136C274.843 72.2347 276.485 67.84 276.57 61.952Z" fill="#FF5499"/>
<path d="M48 96H34.5V70.2825L8.7832 96H0V85.6912L24.1912 61.5H0V48H48V96Z" fill="#FF5499"/>
</svg>
