<svg width="476" height="115" viewBox="0 0 476 115" fill="none" xmlns="http://www.w3.org/2000/svg">
<path d="M432.515 25.2158H449.795V37.5038H450.051C450.904 35.4558 452.056 33.5785 453.507 31.8718C454.958 30.0798 456.622 28.5865 458.499 27.3918C460.376 26.1118 462.382 25.1305 464.515 24.4478C466.648 23.7652 468.867 23.4238 471.171 23.4238C472.366 23.4238 473.688 23.6372 475.139 24.0638V40.9598C474.286 40.7892 473.262 40.6612 472.067 40.5758C470.872 40.4052 469.72 40.3198 468.611 40.3198C465.283 40.3198 462.467 40.8745 460.163 41.9838C457.859 43.0932 455.982 44.6292 454.531 46.5918C453.166 48.4692 452.184 50.6878 451.587 53.2478C450.99 55.8078 450.691 58.5812 450.691 61.5678V91.3918H432.515V25.2158Z" fill="black"/>
<path d="M420.763 14.976H402.587V0H420.763V14.976ZM402.587 25.216H420.763V91.392H402.587V25.216Z" fill="black"/>
<path d="M373.361 58.112C373.361 55.3813 373.105 52.7787 372.593 50.304C372.081 47.744 371.185 45.5253 369.905 43.648C368.71 41.6853 367.132 40.1067 365.169 38.912C363.206 37.7173 360.732 37.12 357.745 37.12C354.758 37.12 352.241 37.7173 350.193 38.912C348.145 40.1067 346.481 41.6853 345.201 43.648C344.006 45.6107 343.11 47.872 342.513 50.432C342.001 52.9067 341.745 55.5093 341.745 58.24C341.745 60.8 342.044 63.36 342.641 65.92C343.238 68.48 344.177 70.784 345.457 72.832C346.822 74.7947 348.486 76.416 350.449 77.696C352.497 78.8907 354.929 79.488 357.745 79.488C360.732 79.488 363.206 78.8907 365.169 77.696C367.217 76.5013 368.838 74.9227 370.033 72.96C371.228 70.912 372.081 68.608 372.593 66.048C373.105 63.488 373.361 60.8427 373.361 58.112ZM373.617 82.944H373.361C371.228 86.528 368.412 89.1307 364.913 90.752C361.5 92.288 357.617 93.056 353.265 93.056C348.316 93.056 343.964 92.1173 340.209 90.24C336.454 88.2773 333.34 85.6747 330.865 82.432C328.476 79.104 326.641 75.3067 325.361 71.04C324.166 66.7733 323.569 62.336 323.569 57.728C323.569 53.2907 324.166 49.024 325.361 44.928C326.641 40.7467 328.476 37.0773 330.865 33.92C333.34 30.7627 336.412 28.2453 340.081 26.368C343.75 24.4053 348.017 23.424 352.881 23.424C356.806 23.424 360.518 24.2773 364.017 25.984C367.601 27.6053 370.417 30.0373 372.465 33.28H372.721V0H390.897V91.392H373.617V82.944Z" fill="black"/>
<path d="M253.07 25.2158H270.35V34.4318H270.734C273.038 30.5918 276.024 27.8185 279.694 26.1118C283.363 24.3198 287.118 23.4238 290.958 23.4238C295.822 23.4238 299.79 24.1065 302.862 25.4718C306.019 26.7518 308.494 28.5865 310.286 30.9758C312.078 33.2798 313.315 36.1385 313.998 39.5518C314.766 42.8798 315.15 46.5918 315.15 50.6878V91.3918H296.974V54.0158C296.974 48.5545 296.12 44.5012 294.414 41.8558C292.707 39.1252 289.678 37.7598 285.326 37.7598C280.376 37.7598 276.792 39.2532 274.574 42.2398C272.355 45.1412 271.246 49.9625 271.246 56.7038V91.3918H253.07V25.2158Z" fill="black"/>
<path d="M181.362 45.5678C181.618 41.3012 182.685 37.7598 184.562 34.9438C186.439 32.1278 188.829 29.8665 191.73 28.1598C194.631 26.4532 197.874 25.2585 201.458 24.5758C205.127 23.8078 208.797 23.4238 212.466 23.4238C215.794 23.4238 219.165 23.6798 222.578 24.1918C225.991 24.6185 229.106 25.5145 231.922 26.8798C234.738 28.2452 237.042 30.1652 238.834 32.6398C240.626 35.0292 241.522 38.2292 241.522 42.2398V76.6718C241.522 79.6585 241.693 82.5172 242.034 85.2478C242.375 87.9785 242.973 90.0265 243.826 91.3918H225.394C225.053 90.3678 224.754 89.3438 224.498 88.3198C224.327 87.2105 224.199 86.1012 224.114 84.9918C221.213 87.9785 217.799 90.0692 213.874 91.2638C209.949 92.4585 205.938 93.0558 201.842 93.0558C198.685 93.0558 195.741 92.6718 193.01 91.9038C190.279 91.1358 187.89 89.9412 185.842 88.3198C183.794 86.6985 182.173 84.6505 180.978 82.1758C179.869 79.7012 179.314 76.7572 179.314 73.3438C179.314 69.5892 179.954 66.5172 181.234 64.1278C182.599 61.6532 184.306 59.6905 186.354 58.2398C188.487 56.7892 190.877 55.7225 193.522 55.0398C196.253 54.2718 198.983 53.6745 201.714 53.2478C204.445 52.8212 207.133 52.4798 209.778 52.2238C212.423 51.9678 214.77 51.5838 216.818 51.0718C218.866 50.5598 220.487 49.8345 221.682 48.8958C222.877 47.8718 223.431 46.4212 223.346 44.5438C223.346 42.5812 223.005 41.0452 222.322 39.9358C221.725 38.7412 220.871 37.8452 219.762 37.2478C218.738 36.5652 217.501 36.1385 216.05 35.9678C214.685 35.7118 213.191 35.5838 211.57 35.5838C207.986 35.5838 205.17 36.3518 203.122 37.8878C201.074 39.4238 199.879 41.9838 199.538 45.5678H181.362ZM223.346 59.0078C222.578 59.6905 221.597 60.2452 220.402 60.6718C219.293 61.0132 218.055 61.3118 216.69 61.5678C215.41 61.8238 214.045 62.0372 212.594 62.2078C211.143 62.3785 209.693 62.5918 208.242 62.8478C206.877 63.1038 205.511 63.4452 204.146 63.8718C202.866 64.2985 201.714 64.8958 200.69 65.6638C199.751 66.3465 198.983 67.2425 198.386 68.3518C197.789 69.4612 197.49 70.8692 197.49 72.5758C197.49 74.1972 197.789 75.5625 198.386 76.6718C198.983 77.7812 199.794 78.6772 200.818 79.3598C201.842 79.9572 203.037 80.3838 204.402 80.6398C205.767 80.8958 207.175 81.0238 208.626 81.0238C212.21 81.0238 214.983 80.4265 216.946 79.2318C218.909 78.0372 220.359 76.6292 221.298 75.0078C222.237 73.3012 222.791 71.5945 222.962 69.8878C223.218 68.1812 223.346 66.8158 223.346 65.7918V59.0078Z" fill="black"/>
<path d="M152.202 0H170.378V91.392H152.202V0Z" fill="black"/>
<path d="M109.408 79.4878C112.395 79.4878 114.869 78.8905 116.832 77.6958C118.88 76.5012 120.501 74.9652 121.696 73.0878C122.976 71.1252 123.872 68.8638 124.384 66.3038C124.896 63.7438 125.152 61.1412 125.152 58.4958C125.152 55.8505 124.853 53.2478 124.256 50.6878C123.744 48.1278 122.848 45.8665 121.568 43.9038C120.288 41.8558 118.624 40.2345 116.576 39.0398C114.613 37.7598 112.181 37.1198 109.28 37.1198C106.293 37.1198 103.776 37.7598 101.728 39.0398C99.7653 40.2345 98.144 41.8132 96.864 43.7758C95.6693 45.7385 94.816 47.9998 94.304 50.5598C93.792 53.1198 93.536 55.7652 93.536 58.4958C93.536 61.1412 93.792 63.7438 94.304 66.3038C94.9013 68.8638 95.7973 71.1252 96.992 73.0878C98.272 74.9652 99.936 76.5012 101.984 77.6958C104.032 78.8905 106.507 79.4878 109.408 79.4878ZM76 25.2158H93.28V33.6638H93.536C95.7547 30.0798 98.5707 27.4772 101.984 25.8558C105.397 24.2345 109.152 23.4238 113.248 23.4238C118.453 23.4238 122.933 24.4052 126.688 26.3678C130.443 28.3305 133.557 30.9332 136.032 34.1758C138.507 37.4185 140.341 41.2158 141.536 45.5678C142.731 49.8345 143.328 54.3145 143.328 59.0078C143.328 63.4452 142.731 67.7118 141.536 71.8078C140.341 75.9038 138.507 79.5305 136.032 82.6878C133.643 85.8452 130.613 88.3625 126.944 90.2398C123.36 92.1172 119.136 93.0558 114.272 93.0558C110.176 93.0558 106.379 92.2452 102.88 90.6238C99.4667 88.9172 96.6507 86.4425 94.432 83.1998H94.176V114.56H76V25.2158Z" fill="black"/>
<path d="M53 92H38.0938V63.6036L9.69812 92H0V80.6173L26.7111 53.9062H0V39H53V92Z" fill="#FF5499"/>
</svg>
