<svg width="590" height="166" viewBox="0 0 590 166" fill="none" xmlns="http://www.w3.org/2000/svg">
<path d="M540.891 128.971C533.435 128.971 527.086 127.398 521.843 124.253C516.6 120.99 512.581 116.563 509.785 110.971C506.989 105.262 505.591 98.7964 505.591 91.5732V40.1948H527.785V88.2528C527.785 94.6605 529.416 99.9032 532.678 103.981C536.057 108.059 540.95 110.097 547.357 110.097C553.998 110.097 558.95 108.117 562.212 104.156C565.474 100.194 567.105 94.8935 567.105 88.2528V40.1948H589.474V126.874H567.105V116.738C564.192 120.699 560.348 123.728 555.571 125.825C550.911 127.922 546.018 128.971 540.891 128.971Z" fill="white"/>
<path d="M468.96 165.321V115.515C466.747 118.428 463.193 121.398 458.3 124.428C453.523 127.34 447.523 128.796 440.3 128.796C432.494 128.796 425.562 126.816 419.504 122.855C413.446 118.894 408.669 113.476 405.174 106.602C401.679 99.7287 399.815 91.9811 399.582 83.3598C399.582 74.9715 401.33 67.3987 404.825 60.6415C408.32 53.7678 413.155 48.3503 419.329 44.3892C425.621 40.3115 432.727 38.2727 440.65 38.2727C446.242 38.2727 451.543 39.3795 456.552 41.5931C461.562 43.6901 465.698 46.8358 468.96 51.0299V40.195H491.329V165.321H468.96ZM445.543 109.399C449.387 109.399 453.116 108.466 456.727 106.602C460.339 104.622 463.251 101.709 465.465 97.8646C467.795 94.02 468.96 89.2433 468.96 83.5346C468.96 78.5249 467.912 74.0977 465.814 70.2531C463.834 66.4085 461.096 63.3794 457.601 61.1658C454.106 58.8357 450.086 57.6706 445.543 57.6706C440.999 57.6706 436.98 58.8357 433.485 61.1658C429.99 63.4959 427.252 66.5832 425.271 70.4279C423.407 74.2725 422.475 78.5831 422.475 83.3598C422.475 88.253 423.465 92.6802 425.446 96.6413C427.426 100.602 430.106 103.748 433.485 106.078C436.98 108.292 440.999 109.399 445.543 109.399Z" fill="white"/>
<path d="M374.843 29.0095C370.881 29.0095 367.445 27.6115 364.532 24.8154C361.736 21.9028 360.338 18.4659 360.338 14.5048C360.338 10.4271 361.736 6.99025 364.532 4.19415C367.445 1.39805 370.881 0 374.843 0C378.92 0 382.357 1.39805 385.153 4.19415C387.949 6.99025 389.347 10.4271 389.347 14.5048C389.347 18.4659 387.949 21.9028 385.153 24.8154C382.357 27.6115 378.92 29.0095 374.843 29.0095ZM363.658 126.873V40.1939H386.027V126.873H363.658Z" fill="white"/>
<path d="M324.558 126.873V4.54395H346.926V126.873H324.558Z" fill="white"/>
<path d="M272.342 128.97C266.517 128.97 261.041 127.864 255.915 125.65C250.905 123.32 246.711 119.767 243.333 114.99V126.873H220.964V4.54395H243.158V52.4272C246.42 47.6505 250.614 44.0971 255.74 41.767C260.866 39.3204 266.4 38.0972 272.342 38.0972C280.614 38.0972 287.721 40.136 293.662 44.2136C299.72 48.1748 304.381 53.5922 307.643 60.466C310.905 67.2232 312.536 74.796 312.536 83.1843C312.536 91.4561 310.905 99.0871 307.643 106.077C304.381 113.068 299.72 118.66 293.662 122.854C287.721 126.932 280.614 128.97 272.342 128.97ZM266.4 109.398C271.061 109.398 275.138 108.233 278.633 105.903C282.128 103.573 284.866 100.427 286.847 96.4657C288.827 92.3881 289.818 87.9609 289.818 83.1843C289.818 77.7086 288.711 73.1067 286.497 69.3785C284.4 65.5339 281.546 62.6213 277.934 60.6407C274.439 58.6601 270.595 57.6699 266.4 57.6699C261.857 57.6699 257.837 58.7766 254.342 60.9902C250.964 63.2038 248.284 66.2912 246.303 70.2523C244.323 74.097 243.333 78.5241 243.333 83.5338C243.333 88.66 244.323 93.2036 246.303 97.1648C248.401 101.009 251.197 104.039 254.692 106.252C258.187 108.349 262.09 109.398 266.4 109.398Z" fill="white"/>
<path d="M64.001 4.54395C64.001 7.47109 68.7867 25.7653 36.5889 33.083C36.5889 60.8903 81.2271 63.817 142.3 40.4004C157.222 34.6787 184.692 27.8486 185.87 45.5234C187.295 66.8964 177.777 96.8095 152.079 113.837C145.691 128.745 133.895 146.884 112.693 149.435C117.039 142.563 119.697 133.635 122.184 125.535C119.144 126.079 115.982 126.49 112.693 126.75C170.503 115.042 183.956 66.0132 181.479 49.9141C180.016 40.4011 154.94 50.6456 143.764 66.0127C126.237 90.1113 115.27 90.161 115.225 90.1611C115.202 90.2683 103.479 146.512 64.001 151.63C70.2508 144.312 75.3729 119.432 87.417 96.7471C84.1539 100.406 80.8911 106.993 75.373 117.237C26.3486 96.7493 24.4834 33.1332 24.4854 33.083C24.3279 33.0497 -3.31614 27.1654 0.332031 4.54395C9.11291 13.3253 26.6752 7.47314 32.5342 18.4473C38.3883 6.74077 56.6831 11.8625 64.001 4.54395ZM126.354 66.5176C125.169 64.465 122.208 63.9554 120.368 65.0176C118.528 66.0798 117.565 68.8555 118.75 70.9082C120.538 74.0056 120.611 69.7107 122.451 68.6484C124.291 67.5865 127.964 69.3051 126.354 66.5176Z" fill="white"/>
</svg>
