<svg width="214" height="76" viewBox="0 0 214 76" fill="none" xmlns="http://www.w3.org/2000/svg">
<path d="M183.628 61.176C183.628 62.136 183.853 62.968 184.301 63.672C184.813 64.312 185.484 64.824 186.316 65.208C187.148 65.528 188.045 65.688 189.005 65.688C190.413 65.688 191.757 65.4 193.036 64.824C194.316 64.184 195.341 63.224 196.109 61.944C196.941 60.6 197.357 58.936 197.357 56.952L198.893 62.712C198.893 65.528 198.157 67.928 196.685 69.912C195.277 71.896 193.325 73.4 190.829 74.424C188.397 75.448 185.708 75.96 182.764 75.96C179.948 75.96 177.325 75.448 174.893 74.424C172.525 73.336 170.605 71.768 169.133 69.72C167.661 67.608 166.924 65.048 166.924 62.04C166.924 57.816 168.396 54.488 171.34 52.056C174.348 49.624 178.669 48.408 184.301 48.408C186.733 48.408 189.005 48.632 191.117 49.08C193.293 49.528 195.181 50.136 196.781 50.904C198.445 51.608 199.693 52.408 200.525 53.304V60.312C199.245 59.224 197.645 58.392 195.725 57.816C193.805 57.24 191.788 56.952 189.676 56.952C188.204 56.952 187.02 57.112 186.124 57.432C185.228 57.752 184.588 58.232 184.204 58.872C183.82 59.448 183.628 60.216 183.628 61.176ZM175.564 45.336L170.285 34.488C173.101 33.272 176.332 32.152 179.98 31.128C183.692 30.04 187.628 29.496 191.788 29.496C195.82 29.496 199.437 30.072 202.637 31.224C205.901 32.312 208.46 33.944 210.316 36.12C212.236 38.296 213.197 40.952 213.197 44.088V75H197.357V48.024C197.357 47.064 197.196 46.2 196.876 45.432C196.62 44.664 196.173 44.024 195.533 43.512C194.892 42.936 194.06 42.52 193.036 42.264C192.013 41.944 190.828 41.784 189.484 41.784C187.628 41.784 185.709 42.008 183.725 42.456C181.805 42.904 180.109 43.416 178.637 43.992C177.165 44.568 176.14 45.016 175.564 45.336Z" fill="#6A03CB"/>
<path d="M141.94 14.808C141.94 12.248 142.836 10.168 144.628 8.56797C146.484 6.96797 148.692 6.16797 151.252 6.16797C153.876 6.16797 156.084 6.96797 157.876 8.56797C159.732 10.168 160.66 12.248 160.66 14.808C160.66 17.304 159.732 19.352 157.876 20.952C156.084 22.552 153.876 23.352 151.252 23.352C148.692 23.352 146.484 22.552 144.628 20.952C142.836 19.352 141.94 17.304 141.94 14.808ZM143.284 30.84H159.22V75H143.284V30.84Z" fill="#6A03CB"/>
<path d="M115.999 0.119995H132.607V75H115.999V0.119995Z" fill="#6A03CB"/>
<path d="M88.905 0.119995H105.513V75H88.905V0.119995Z" fill="#6A03CB"/>
<path d="M60.753 14.808C60.753 12.248 61.649 10.168 63.441 8.56797C65.297 6.96797 67.505 6.16797 70.065 6.16797C72.689 6.16797 74.897 6.96797 76.689 8.56797C78.545 10.168 79.473 12.248 79.473 14.808C79.473 17.304 78.545 19.352 76.689 20.952C74.897 22.552 72.689 23.352 70.065 23.352C67.505 23.352 65.297 22.552 63.441 20.952C61.649 19.352 60.753 17.304 60.753 14.808ZM62.097 30.84H78.033V75H62.097V30.84Z" fill="#6A03CB"/>
<path d="M0.191986 24.408V7.79999H56.448V24.408H37.632V75H19.008V24.408H0.191986Z" fill="#6A03CB"/>
</svg>
