<svg width="612" height="166" viewBox="0 0 612 166" fill="none" xmlns="http://www.w3.org/2000/svg">
<path d="M562.891 128.971C555.434 128.971 549.085 127.398 543.842 124.253C538.599 120.99 534.58 116.563 531.784 110.971C528.988 105.262 527.59 98.7964 527.59 91.5732V40.1948H549.784V88.2528C549.784 94.6605 551.415 99.9032 554.677 103.981C558.056 108.059 562.949 110.097 569.356 110.097C575.997 110.097 580.949 108.117 584.211 104.156C587.473 100.194 589.104 94.8935 589.104 88.2528V40.1948H611.473V126.874H589.104V116.738C586.191 120.699 582.347 123.728 577.57 125.825C572.91 127.922 568.017 128.971 562.891 128.971Z" fill="black"/>
<path d="M490.959 165.32V115.515C488.746 118.427 485.192 121.398 480.299 124.427C475.522 127.34 469.522 128.796 462.299 128.796C454.493 128.796 447.561 126.816 441.503 122.855C435.445 118.893 430.668 113.476 427.173 106.602C423.678 99.7285 421.814 91.981 421.581 83.3597C421.581 74.9714 423.329 67.3986 426.824 60.6414C430.319 53.7676 435.154 48.3502 441.328 44.389C447.62 40.3114 454.726 38.2726 462.649 38.2726C468.241 38.2726 473.542 39.3794 478.551 41.593C483.561 43.69 487.697 46.8356 490.959 51.0298V40.1949H513.328V165.32H490.959ZM467.542 109.398C471.386 109.398 475.115 108.466 478.726 106.602C482.338 104.622 485.25 101.709 487.464 97.8645C489.794 94.0198 490.959 89.2432 490.959 83.5345C490.959 78.5248 489.911 74.0976 487.813 70.253C485.833 66.4083 483.095 63.3792 479.6 61.1657C476.105 58.8356 472.085 57.6705 467.542 57.6705C462.998 57.6705 458.979 58.8356 455.484 61.1657C451.989 63.4957 449.251 66.5831 447.27 70.4277C445.406 74.2724 444.474 78.583 444.474 83.3597C444.474 88.2529 445.464 92.68 447.445 96.6412C449.425 100.602 452.105 103.748 455.484 106.078C458.979 108.292 462.998 109.398 467.542 109.398Z" fill="black"/>
<path d="M396.842 29.0095C392.881 29.0095 389.444 27.6115 386.531 24.8154C383.735 21.9028 382.337 18.4659 382.337 14.5048C382.337 10.4271 383.735 6.99025 386.531 4.19415C389.444 1.39805 392.881 0 396.842 0C400.919 0 404.356 1.39805 407.152 4.19415C409.948 6.99025 411.346 10.4271 411.346 14.5048C411.346 18.4659 409.948 21.9028 407.152 24.8154C404.356 27.6115 400.919 29.0095 396.842 29.0095ZM385.657 126.873V40.1939H408.026V126.873H385.657Z" fill="black"/>
<path d="M346.557 126.873V4.54407H368.925V126.873H346.557Z" fill="black"/>
<path d="M294.341 128.971C288.516 128.971 283.04 127.864 277.914 125.65C272.904 123.32 268.71 119.767 265.332 114.99V126.873H242.963V4.54407H265.157V52.4273C268.419 47.6506 272.613 44.0972 277.739 41.7672C282.865 39.3206 288.399 38.0973 294.341 38.0973C302.613 38.0973 309.72 40.1361 315.661 44.2137C321.719 48.1749 326.38 53.5923 329.642 60.4661C332.904 67.2233 334.535 74.7961 334.535 83.1844C334.535 91.4562 332.904 99.0872 329.642 106.077C326.38 113.068 321.719 118.66 315.661 122.854C309.72 126.932 302.613 128.971 294.341 128.971ZM288.399 109.398C293.06 109.398 297.137 108.233 300.632 105.903C304.127 103.573 306.865 100.427 308.846 96.4659C310.826 92.3882 311.817 87.9611 311.817 83.1844C311.817 77.7087 310.71 73.1068 308.496 69.3786C306.399 65.534 303.545 62.6214 299.933 60.6408C296.438 58.6603 292.594 57.67 288.399 57.67C283.856 57.67 279.836 58.7768 276.341 60.9904C272.963 63.2039 270.283 66.2913 268.302 70.2524C266.322 74.0971 265.332 78.5242 265.332 83.5339C265.332 88.6601 266.322 93.2038 268.302 97.1649C270.4 101.01 273.196 104.039 276.691 106.252C280.186 108.349 284.089 109.398 288.399 109.398Z" fill="black"/>
<path d="M64 4.54395C64 7.47108 68.7865 25.7653 36.5889 33.083C36.5889 60.8903 81.2262 63.8169 142.299 40.4004C157.222 34.6787 184.691 27.8486 185.869 45.5234C187.294 66.8964 177.776 96.8096 152.078 113.837C145.69 128.745 133.894 146.884 112.692 149.435C117.038 142.563 119.696 133.635 122.183 125.535C119.143 126.079 115.981 126.49 112.692 126.75C170.502 115.042 183.955 66.0132 181.479 49.9141C180.015 40.4011 154.939 50.6455 143.763 66.0127C126.2 90.1608 115.224 90.1611 115.224 90.1611C115.201 90.2683 103.478 146.512 64 151.63C70.2498 144.312 75.3728 119.432 87.417 96.7471C84.1539 100.406 80.8901 106.993 75.3721 117.237C26.3478 96.7493 24.4824 33.1332 24.4844 33.083C24.32 33.0482 -3.31568 27.1626 0.332031 4.54395C9.11302 13.3252 26.6754 7.47282 32.5342 18.4473C38.3885 6.7411 56.6822 11.8625 64 4.54395ZM126.354 66.5176C125.169 64.4649 122.208 63.9556 120.368 65.0176C118.528 66.0797 117.564 68.8555 118.749 70.9082C120.537 74.0056 120.61 69.7107 122.45 68.6484C124.29 67.5862 127.964 69.3052 126.354 66.5176Z" fill="black"/>
</svg>
