<svg width="263" height="101" viewBox="0 0 263 101" fill="none" xmlns="http://www.w3.org/2000/svg">
<path d="M220.568 100.364C216.114 100.364 212.159 99.6212 208.705 98.1364C205.28 96.6212 202.568 94.3485 200.568 91.3182C198.598 88.2576 197.614 84.4243 197.614 79.8182C197.614 75.9394 198.295 72.6667 199.659 70C201.023 67.3333 202.902 65.1667 205.295 63.5C207.689 61.8333 210.447 60.5758 213.568 59.7273C216.689 58.8485 220.023 58.2576 223.568 57.9546C227.538 57.5909 230.735 57.2121 233.159 56.8182C235.583 56.394 237.341 55.803 238.432 55.0455C239.553 54.2576 240.114 53.1515 240.114 51.7273V51.5C240.114 49.1667 239.311 47.3636 237.705 46.0909C236.098 44.8182 233.932 44.1818 231.205 44.1818C228.265 44.1818 225.902 44.8182 224.114 46.0909C222.326 47.3636 221.189 49.1212 220.705 51.3636L200.205 50.6364C200.811 46.394 202.371 42.6061 204.886 39.2727C207.432 35.9091 210.917 33.2727 215.341 31.3636C219.795 29.4243 225.144 28.4546 231.386 28.4546C235.841 28.4546 239.947 28.9849 243.705 30.0455C247.462 31.0758 250.735 32.5909 253.523 34.5909C256.311 36.5606 258.462 38.9849 259.977 41.8636C261.523 44.7424 262.295 48.0303 262.295 51.7273V99.1818H241.386V89.4546H240.841C239.598 91.8182 238.008 93.8182 236.068 95.4546C234.159 97.0909 231.902 98.3182 229.295 99.1364C226.72 99.9546 223.811 100.364 220.568 100.364ZM227.432 85.8182C229.826 85.8182 231.977 85.3333 233.886 84.3636C235.826 83.394 237.371 82.0606 238.523 80.3636C239.674 78.6364 240.25 76.6364 240.25 74.3636V67.7273C239.614 68.0606 238.841 68.3636 237.932 68.6364C237.053 68.9091 236.083 69.1667 235.023 69.4091C233.962 69.6515 232.871 69.8636 231.75 70.0455C230.629 70.2273 229.553 70.3939 228.523 70.5455C226.432 70.8788 224.644 71.394 223.159 72.0909C221.705 72.7879 220.583 73.697 219.795 74.8182C219.038 75.9091 218.659 77.2121 218.659 78.7273C218.659 81.0303 219.477 82.7879 221.114 84C222.78 85.2121 224.886 85.8182 227.432 85.8182Z" fill="#FF3086"/>
<path d="M164.511 99.1818V29.3636H186.739V99.1818H164.511ZM175.648 21.2273C172.527 21.2273 169.845 20.197 167.602 18.1364C165.36 16.0455 164.239 13.5303 164.239 10.5909C164.239 7.68182 165.36 5.19697 167.602 3.13637C169.845 1.04546 172.527 0 175.648 0C178.799 0 181.481 1.04546 183.693 3.13637C185.936 5.19697 187.057 7.68182 187.057 10.5909C187.057 13.5303 185.936 16.0455 183.693 18.1364C181.481 20.197 178.799 21.2273 175.648 21.2273Z" fill="#FF3086"/>
<path d="M150.364 6.09091V99.1818H128.136V6.09091H150.364Z" fill="#FF3086"/>
<path d="M114.131 28.1816V99.1816H92.1309V28.1816H114.131Z" fill="#FF3086"/>
<path d="M55.3864 99.1818V59.3636H77.6136V99.1818H55.3864ZM66.5227 51.2273C63.4015 51.2273 60.7197 50.197 58.4773 48.1364C56.2349 46.0455 55.1136 43.5303 55.1136 40.5909C55.1136 37.6818 56.2349 35.197 58.4773 33.1364C60.7197 31.0455 63.4015 30 66.5227 30C69.6743 30 72.3561 31.0455 74.5682 33.1364C76.8106 35.197 77.9318 37.6818 77.9318 40.5909C77.9318 43.5303 76.8106 46.0455 74.5682 48.1364C72.3561 50.197 69.6743 51.2273 66.5227 51.2273Z" fill="#FF3086"/>
<path d="M44.0455 29.3636V45.7273H0V29.3636H44.0455ZM9.22727 12.6364H31.4545V77.2273C31.4545 78.5909 31.6667 79.697 32.0909 80.5455C32.5455 81.3636 33.197 81.9546 34.0455 82.3182C34.8939 82.6515 35.9091 82.8182 37.0909 82.8182C37.9394 82.8182 38.8333 82.7424 39.7727 82.5909C40.7424 82.4091 41.4697 82.2576 41.9545 82.1364L45.3182 98.1818C44.2576 98.4849 42.7576 98.8636 40.8182 99.3182C38.9091 99.7727 36.6212 100.061 33.9545 100.182C28.7424 100.424 24.2727 99.8182 20.5455 98.3636C16.8485 96.8788 14.0152 94.5758 12.0455 91.4546C10.1061 88.3333 9.16667 84.4091 9.22727 79.6818V12.6364Z" fill="#FF3086"/>
</svg>
