<svg width="360" height="284" viewBox="0 0 360 284" fill="none" xmlns="http://www.w3.org/2000/svg">
<path d="M123.574 0C123.574 5.65183 132.815 40.9752 70.6465 55.1045C70.6465 108.796 156.836 114.448 274.758 69.2344C303.571 58.1868 356.61 44.9979 358.885 79.125C361.636 120.393 343.257 178.149 293.639 211.026C281.304 239.812 258.529 274.836 217.592 279.761C225.983 266.493 231.114 249.253 235.916 233.614C230.047 234.665 223.941 235.459 217.592 235.96C329.213 213.353 355.189 118.687 350.407 87.6025C347.581 69.2345 299.162 89.015 277.583 118.687C243.766 165.184 222.596 165.313 222.479 165.313C222.436 165.52 199.8 274.119 123.574 284C135.642 269.871 145.533 221.831 168.788 178.03C162.488 185.095 156.187 197.811 145.532 217.592C50.8738 178.033 47.2716 55.2014 47.2754 55.1045C46.9523 55.0361 -6.40216 43.6705 0.640625 0C17.5952 16.9554 51.5048 5.65595 62.8174 26.8457C74.1208 4.24221 109.444 14.131 123.574 0ZM243.962 119.663C241.674 115.7 235.956 114.716 232.403 116.767C228.851 118.818 226.99 124.177 229.278 128.141C232.731 134.121 232.872 125.827 236.424 123.776C239.976 121.726 247.069 125.045 243.962 119.663Z" fill="white"/>
</svg>
