<svg width="105" height="25" viewBox="0 0 105 25" fill="none" xmlns="http://www.w3.org/2000/svg">
<path d="M3.37207 7.72562L5.16602 5.92582H9.9082L3.37207 12.4815V14.375L11.8096 5.92582H16.5479L3.3877 19.1065L3.37207 19.0899V19.1065H0V5.92582H3.37207V7.72562Z" fill="black"/>
<path d="M92.1024 24.0282L94.8549 17.6107H94.1302L88.655 5.80142H93.0298L96.68 13.9874H96.7873L99.9276 5.80142H104.222L96.3699 24.0282H92.1024Z" fill="black"/>
<path d="M79.3422 19.1078V5.79553H82.7509L83.0998 8.72102H83.2071C83.5829 7.79059 84.0034 7.09277 84.4686 6.62755C84.9517 6.16234 85.4974 5.85816 86.1058 5.71502C86.7142 5.55398 87.3852 5.47346 88.1188 5.47346V9.74092H87.0183C86.4458 9.74092 85.9269 9.80354 85.4617 9.92879C85.0143 10.054 84.6296 10.2598 84.3076 10.5461C84.0034 10.8145 83.7708 11.1813 83.6097 11.6465C83.4487 12.0938 83.3682 12.6485 83.3682 13.3106V19.1078H79.3422Z" fill="black"/>
<path d="M63.4874 19.1042V0.31665H67.4328V8.01954H67.5402C67.9875 7.19647 68.5779 6.57022 69.3116 6.14079C70.0631 5.69347 70.9756 5.4698 72.0492 5.4698C73.1407 5.4698 74.0532 5.72031 74.7868 6.22131C75.5204 6.70441 76.0841 7.41118 76.4777 8.34161C76.8714 9.25415 77.0682 10.3814 77.0682 11.7234V19.1042H73.0691V12.0991C73.0691 11.0613 72.8633 10.2651 72.4518 9.71042C72.0581 9.13785 71.3961 8.85156 70.4657 8.85156C69.8931 8.85156 69.3831 8.98576 68.9358 9.25415C68.4885 9.52255 68.1396 9.91619 67.8891 10.4351C67.6386 10.9361 67.5133 11.5444 67.5133 12.2602V19.1042H63.4874Z" fill="black"/>
<path d="M59.3476 19.1125C58.3635 19.1125 57.4957 18.9604 56.7441 18.6562C56.0105 18.3341 55.429 17.8153 54.9996 17.0995C54.588 16.3838 54.3823 15.4087 54.3823 14.1741V9.07458H52.1277V5.80018H54.3823L54.8385 2.06951H58.435V5.80018H61.8437V9.07458H58.4082V14.2277C58.4082 14.7824 58.5334 15.1761 58.7839 15.4087C59.0345 15.6234 59.4549 15.7307 60.0454 15.7307H61.8168V19.1125H59.3476Z" fill="black"/>
<path d="M46.1748 19.1096V5.7973H50.2007V19.1096H46.1748ZM48.2146 4.40165C47.4989 4.40165 46.9084 4.19588 46.4432 3.78435C45.9959 3.35492 45.7722 2.82708 45.7722 2.20082C45.7722 1.57457 45.9959 1.05568 46.4432 0.644144C46.9084 0.214715 47.4989 0 48.2146 0C48.9482 0 49.5387 0.214715 49.986 0.644144C50.4333 1.05568 50.657 1.57457 50.657 2.20082C50.657 2.82708 50.4333 3.35492 49.986 3.78435C49.5387 4.19588 48.9482 4.40165 48.2146 4.40165Z" fill="black"/>
<path d="M21.023 19.1078V5.79553H24.539L24.8611 8.05004H24.9684C25.3621 7.19118 25.9257 6.54704 26.6593 6.11761C27.393 5.68818 28.2608 5.47346 29.2628 5.47346C29.9069 5.47346 30.5063 5.56293 31.061 5.74185C31.6336 5.90289 32.1346 6.18023 32.564 6.57387C33.0114 6.94963 33.3782 7.45063 33.6645 8.07688H33.7718C34.2728 7.2717 34.8901 6.6365 35.6237 6.17128C36.3752 5.70607 37.3325 5.47346 38.4956 5.47346C39.5334 5.47346 40.4191 5.72396 41.1527 6.22496C41.9042 6.70807 42.4768 7.41484 42.8704 8.34527C43.2819 9.25781 43.4877 10.3851 43.4877 11.727V19.1078H39.4886V12.1028C39.4886 11.065 39.2918 10.2688 38.8982 9.71408C38.5045 9.14151 37.8783 8.85522 37.0194 8.85522C36.4468 8.85522 35.9548 8.98047 35.5432 9.23097C35.1496 9.48147 34.8364 9.84827 34.6038 10.3314C34.3891 10.8145 34.2818 11.405 34.2818 12.1028V19.1078H30.2558V12.1028C30.2558 11.065 30.059 10.2688 29.6654 9.71408C29.2717 9.14151 28.6365 8.85522 27.7598 8.85522C27.2409 8.85522 26.7756 8.98942 26.3641 9.25781C25.9526 9.5262 25.6305 9.91985 25.3979 10.4387C25.1653 10.9397 25.049 11.5481 25.049 12.2638V19.1078H21.023Z" fill="black"/>
</svg>
